<?xml version="1.0" encoding="UTF-8" standalone="no"?>
<svg
   xmlns:dc="http://purl.org/dc/elements/1.1/"
   xmlns:cc="http://creativecommons.org/ns#"
   xmlns:rdf="http://www.w3.org/1999/02/22-rdf-syntax-ns#"
   xmlns:svg="http://www.w3.org/2000/svg"
   xmlns="http://www.w3.org/2000/svg"
   viewBox="0 0 529.33331 622.66669"
   height="622.66669"
   width="529.33331"
   xml:space="preserve"
   id="svg834"
   version="1.1"><metadata
     id="metadata840"><rdf:RDF><cc:Work
         rdf:about=""><dc:format>image/svg+xml</dc:format><dc:type
           rdf:resource="http://purl.org/dc/dcmitype/StillImage" /><dc:title></dc:title></cc:Work></rdf:RDF></metadata><defs
     id="defs838" /><g
     transform="matrix(1.3333333,0,0,-1.3333333,0,622.66667)"
     id="g842"><g
       transform="scale(0.1)"
       id="g844"><path
         id="path846"
         style="fill:#ffffff;fill-opacity:1;fill-rule:nonzero;stroke:none"
         d="m 1179.88,13.2813 c -130.66,0 -236.599,76.0976 -236.599,169.9607 0,93.828 105.939,169.918 236.599,169.918 h 946.41 c 130.66,0 236.6,-76.09 236.6,-169.918 0,-93.8631 -105.94,-169.9607 -236.6,-169.9607 z" /><g
         transform="scale(1.16395,-0.836053)"
         id="g848"><path
           id="path850"
           style="fill:none;stroke:#000000;stroke-width:20.32729912;stroke-linecap:butt;stroke-linejoin:miter;stroke-miterlimit:4;stroke-dasharray:none;stroke-opacity:1"
           d="m 1013.69,-15.8856 c -112.258,0 -203.274,-91.0204 -203.274,-203.2944 0,-112.218 91.016,-203.238 203.274,-203.238 h 813.1 c 112.26,0 203.28,91.02 203.28,203.238 0,112.274 -91.02,203.2944 -203.28,203.2944 z" /></g><g
         transform="scale(10)"
         id="g852"><text
           id="text858"
           style="font-variant:normal;font-weight:normal;font-size:12px;font-family:'DejaVu Sans';-inkscape-font-specification:DejaVuSans;writing-mode:lr-tb;fill:#000000;fill-opacity:1;fill-rule:nonzero;stroke:none"
           transform="matrix(1,0,0,-1,113.073,22.5516)"><tspan
             id="tspan854"
             y="0"
             x="0 7.9439378 11.279938 18.635937 26.255938 29.591938 36.971939 40.787937 48.407936 51.743938 63.431938 71.03994 74.375938 81.731941 86.435936 89.771935 97.115936">Viable Simulation</tspan><tspan
             id="tspan856"
             y="15.1758"
             x="-4.4214802 3.1985199 10.57852 15.28252 19.962521 27.990614 36.366615 43.050613 46.386612 52.638615 57.342613 61.158615 64.974617 72.594612 79.530548 83.34655 87.162552 95.370552">Set(BCList, SF, VF</tspan></text>
<text
           id="text862"
           style="font-variant:normal;font-weight:normal;font-size:7.80000019px;font-family:'DejaVu Sans';-inkscape-font-specification:DejaVuSans;writing-mode:lr-tb;fill:#000000;fill-opacity:1;fill-rule:nonzero;stroke:none"
           transform="matrix(1,0,0,-1,215.36252,4.9758)"><tspan
             id="tspan860"
             y="0"
             x="0">i</tspan></text>
<text
           id="text866"
           style="font-variant:normal;font-weight:normal;font-size:12px;font-family:'DejaVu Sans';-inkscape-font-specification:DejaVuSans;writing-mode:lr-tb;fill:#000000;fill-opacity:1;fill-rule:nonzero;stroke:none"
           transform="matrix(1,0,0,-1,217.5258,7.3758)"><tspan
             id="tspan864"
             y="0"
             x="0">)</tspan></text>
</g><path
         id="path868"
         style="fill:#ffffff;fill-opacity:1;fill-rule:nonzero;stroke:none"
         d="m 1122.07,541.641 h 1062.07 v 351.41 H 1122.07 Z" /><g
         transform="scale(1.33665,-0.663346)"
         id="g870"><path
           id="path872"
           style="fill:none;stroke:#000000;stroke-width:13.24300003;stroke-linecap:butt;stroke-linejoin:miter;stroke-miterlimit:4;stroke-dasharray:none;stroke-opacity:1"
           d="m 839.462,-1346.27 h 794.578 v 529.747 H 839.462 Z" /></g><g
         transform="scale(10)"
         id="g874"><text
           id="text878"
           style="font-variant:normal;font-weight:normal;font-size:12px;font-family:'DejaVu Sans';-inkscape-font-specification:DejaVuSans;writing-mode:lr-tb;fill:#000000;fill-opacity:1;fill-rule:nonzero;stroke:none"
           transform="matrix(1,0,0,-1,120.638,67.9672)"><tspan
             id="tspan876"
             y="0"
             x="0 8.2320004 15.84 19.176001 22.511999 30.132 37.512001 42.444 47.124001 55.152092 63.528095 70.212097 73.548096 79.800095 84.504097">Builder(BCList)</tspan></text>
<text
           id="text884"
           style="font-variant:normal;font-weight:normal;font-size:12.24928379px;font-family:'DejaVu Sans';-inkscape-font-specification:DejaVuSans;writing-mode:lr-tb;fill:#000000;fill-opacity:1;fill-rule:nonzero;stroke:none"
           transform="matrix(1,0,0,-0.91023284,222.248,330.607)"><tspan
             id="tspan880"
             y="0"
             x="0 5.8675904 13.4009">Yes</tspan><tspan
             id="tspan882"
             y="101.29749"
             x="18.94647 24.814062 32.34737">Yes</tspan></text>
</g><path
         id="path886"
         style="fill:#ffffff;fill-opacity:1;fill-rule:nonzero;stroke:none"
         d="m 1119.1,2340.51 523.17,349.84 523.16,-349.84 -523.16,-349.89 z" /><g
         transform="scale(0.998454,-1.00155)"
         id="g888"><path
           id="path890"
           style="fill:none;stroke:#000000;stroke-width:17.46570015;stroke-linecap:butt;stroke-linejoin:miter;stroke-miterlimit:4;stroke-dasharray:none;stroke-opacity:1"
           d="m 1120.84,-2336.9 523.97,-349.3 523.97,349.3 -523.97,349.35 z" /></g><g
         transform="scale(10)"
         id="g892"><text
           id="text898"
           style="font-variant:normal;font-weight:normal;font-size:12px;font-family:'DejaVu Sans';-inkscape-font-specification:DejaVuSans;writing-mode:lr-tb;fill:#000000;fill-opacity:1;fill-rule:nonzero;stroke:none"
           transform="matrix(1,0,0,-1,140.23,238.326)"><tspan
             id="tspan894"
             y="0"
             x="0 6.7078753 14.063875 18.995874 23.699875 27.035875 34.391876 37.727875 41.063877">Partially</tspan><tspan
             id="tspan896"
             y="15.1758"
             x="-8.0273399 0.34865999 7.6926599 19.380659 27.00066 30.33666 37.71666 42.420658 49.800659">Complete?</tspan></text>
</g><path
         id="path900"
         style="fill:#ffffff;fill-opacity:1;fill-rule:nonzero;stroke:none"
         d="m 1387.54,4312.74 h 531.133 v 351.992 H 1387.54 Z" /><g
         transform="scale(1.00299,-0.997014)"
         id="g902"><path
           id="path904"
           style="fill:none;stroke:#000000;stroke-width:8.8260603;stroke-linecap:butt;stroke-linejoin:miter;stroke-miterlimit:4;stroke-dasharray:none;stroke-opacity:1"
           d="m 1383.41,-4678.7 h 529.55 v 353.05 h -529.55 z" /></g><g
         transform="scale(10)"
         id="g906"><text
           id="text910"
           style="font-variant:normal;font-weight:normal;font-size:12px;font-family:'DejaVu Sans';-inkscape-font-specification:DejaVuSans;writing-mode:lr-tb;fill:#000000;fill-opacity:1;fill-rule:nonzero;stroke:none"
           transform="matrix(1,0,0,-1,144.266,444.401)"><tspan
             id="tspan908"
             y="0"
             x="0 8.0159845 16.391985 20.207985 26.891985 30.227983 36.479984">BC List</tspan></text>
</g><path
         id="path912"
         style="fill:#ffffff;fill-opacity:1;fill-rule:nonzero;stroke:none"
         d="m 943.871,3785.2 h 1418.44 v 350.27 H 943.871 Z" /><g
         transform="scale(1.4594,-0.540596)"
         id="g914"><path
           id="path916"
           style="fill:none;stroke:#000000;stroke-width:16.19879913;stroke-linecap:butt;stroke-linejoin:miter;stroke-miterlimit:4;stroke-dasharray:none;stroke-opacity:1"
           d="m 646.751,-7649.84 h 971.929 v 647.94 H 646.751 Z" /></g><g
         transform="scale(10)"
         id="g918"><text
           id="text922"
           style="font-variant:normal;font-weight:normal;font-size:12px;font-family:'DejaVu Sans';-inkscape-font-specification:DejaVuSans;writing-mode:lr-tb;fill:#000000;fill-opacity:1;fill-rule:nonzero;stroke:none"
           transform="matrix(1,0,0,-1,113.216,392.674)"><tspan
             id="tspan920"
             y="0"
             x="0 6.684 14.04 21.66 29.040001 32.375999 37.056 45.071983 53.447983 60.131985 63.467983 69.719986 74.423981 78.239983 82.055984 90.263985">Label(BCList, VF</tspan></text>
<text
           id="text926"
           style="font-variant:normal;font-weight:normal;font-size:7.80000019px;font-family:'DejaVu Sans';-inkscape-font-specification:DejaVuSans;writing-mode:lr-tb;fill:#000000;fill-opacity:1;fill-rule:nonzero;stroke:none"
           transform="matrix(1,0,0,-1,210.4113,390.274)"><tspan
             id="tspan924"
             y="0"
             x="0">i</tspan></text>
<text
           id="text930"
           style="font-variant:normal;font-weight:normal;font-size:12px;font-family:'DejaVu Sans';-inkscape-font-specification:DejaVuSans;writing-mode:lr-tb;fill:#000000;fill-opacity:1;fill-rule:nonzero;stroke:none"
           transform="matrix(1,0,0,-1,212.57458,392.674)"><tspan
             id="tspan928"
             y="0"
             x="0">)</tspan></text>
</g><path
         id="path932"
         style="fill:#ffffff;fill-opacity:1;fill-rule:nonzero;stroke:none"
         d="m 12.5,3785.03 h 707.73 v 350.59 H 12.5 Z" /><g
         transform="scale(1.14745,-0.852554)"
         id="g934"><path
           id="path936"
           style="fill:none;stroke:#000000;stroke-width:10.2802;stroke-linecap:butt;stroke-linejoin:miter;stroke-miterlimit:4;stroke-dasharray:none;stroke-opacity:1"
           d="M 10.8938,-4850.86 H 627.682 v 411.21 H 10.8938 Z" /></g><g
         transform="scale(10)"
         id="g938"><text
           id="text944"
           style="font-variant:normal;font-weight:normal;font-size:12px;font-family:'DejaVu Sans';-inkscape-font-specification:DejaVuSans;writing-mode:lr-tb;fill:#000000;fill-opacity:1;fill-rule:nonzero;stroke:none"
           transform="matrix(1,0,0,-1,5.18125,400.262)"><tspan
             id="tspan940"
             y="0"
             x="0 7.259953 14.615953 19.547953 22.883953 30.239954 34.943954 38.279953 45.623955 53.231953 60.623898">Variational</tspan><tspan
             id="tspan942"
             y="15.1758"
             x="4.3793001 10.871488 18.215487 22.943581 34.63158 38.447582 42.26358 50.471581">Form, VF</tspan></text>
<text
           id="text948"
           style="font-variant:normal;font-weight:normal;font-size:7.80000019px;font-family:'DejaVu Sans';-inkscape-font-specification:DejaVuSans;writing-mode:lr-tb;fill:#000000;fill-opacity:1;fill-rule:nonzero;stroke:none"
           transform="matrix(1,0,0,-1,62.57615,382.6862)"><tspan
             id="tspan946"
             y="0"
             x="0">i</tspan></text>
</g><path
         id="path950"
         style="fill:#ffffff;fill-opacity:1;fill-rule:nonzero;stroke:none"
         d="m 1116.88,3229.14 524.41,348.98 524.37,-348.98 -524.37,-349.02 z" /><g
         transform="scale(1.00084,-0.99916)"
         id="g952"><path
           id="path954"
           style="fill:none;stroke:#000000;stroke-width:17.46529961;stroke-linecap:butt;stroke-linejoin:miter;stroke-miterlimit:4;stroke-dasharray:none;stroke-opacity:1"
           d="m 1115.94,-3231.86 523.97,-349.27 523.93,349.27 -523.93,349.32 z" /></g><g
         transform="scale(10)"
         id="g956"><text
           id="text960"
           style="font-variant:normal;font-weight:normal;font-size:12.24928379px;font-family:'DejaVu Sans';-inkscape-font-specification:DejaVuSans;writing-mode:lr-tb;fill:#000000;fill-opacity:1;fill-rule:nonzero;stroke:none"
           transform="matrix(1,0,0,-0.91023284,126.396,319.837)"><tspan
             id="tspan958"
             y="0"
             x="0 3.6135385 11.379584 18.11669 25.613251 37.544052 45.32235 48.72765 56.26096 61.062679 68.595985">Incomplete?</tspan></text>
</g><path
         id="path962"
         style="fill:#ffffff;fill-opacity:1;fill-rule:nonzero;stroke:none"
         d="m 2771.8,3061.17 c -130.67,0 -236.6,76.06 -236.6,169.92 0,93.87 105.93,169.96 236.6,169.96 h 946.4 c 130.67,0 236.6,-76.09 236.6,-169.96 0,-93.86 -105.93,-169.92 -236.6,-169.92 z" /><g
         transform="scale(1.16395,-0.836053)"
         id="g964"><path
           id="path966"
           style="fill:none;stroke:#000000;stroke-width:20.32729912;stroke-linecap:butt;stroke-linejoin:miter;stroke-miterlimit:4;stroke-dasharray:none;stroke-opacity:1"
           d="m 2381.38,-3661.46 c -112.26,0 -203.27,-90.96 -203.27,-203.24 0,-112.27 91.01,-203.29 203.27,-203.29 h 813.1 c 112.26,0 203.27,91.02 203.27,203.29 0,112.28 -91.01,203.24 -203.27,203.24 z" /></g><g
         transform="scale(10)"
         id="g968"><text
           id="text974"
           style="font-variant:normal;font-weight:normal;font-size:12px;font-family:'DejaVu Sans';-inkscape-font-specification:DejaVuSans;writing-mode:lr-tb;fill:#000000;fill-opacity:1;fill-rule:nonzero;stroke:none"
           transform="matrix(1,0,0,-1,300.614,326.224)"><tspan
             id="tspan970"
             y="0"
             x="0 3.54 11.148 18.252001 21.587999 28.944 36.563999 39.900002 47.279999">Inviable </tspan><tspan
             id="tspan972"
             y="15.1758"
             x="-20.0977 -12.4777 -9.1416998 2.5462999 10.1543 13.4903 20.8463 25.550301 28.886299 36.230301 43.838299 47.654301 55.2743 62.654301">Simulation Set</tspan></text>
</g><path
         id="path976"
         style="fill:#ffffff;fill-opacity:1;fill-rule:nonzero;stroke:none"
         d="m 1122.07,1085.82 h 1062.07 v 351.41 H 1122.07 Z" /><g
         transform="scale(1.33665,-0.663346)"
         id="g978"><path
           id="path980"
           style="fill:none;stroke:#000000;stroke-width:13.24300003;stroke-linecap:butt;stroke-linejoin:miter;stroke-miterlimit:4;stroke-dasharray:none;stroke-opacity:1"
           d="m 839.462,-2166.63 h 794.578 v 529.75 H 839.462 Z" /></g><g
         transform="scale(10)"
         id="g982"><text
           id="text988"
           style="font-variant:normal;font-weight:normal;font-size:12px;font-family:'DejaVu Sans';-inkscape-font-specification:DejaVuSans;writing-mode:lr-tb;fill:#000000;fill-opacity:1;fill-rule:nonzero;stroke:none"
           transform="matrix(1,0,0,-1,136.139,129.267)"><tspan
             id="tspan984"
             y="0"
             x="0 8.3760004 15.72 27.408001 35.028 38.363998 45.743999 50.448002">Complete</tspan><tspan
             id="tspan986"
             y="15.1758"
             x="-14.8125 -7.1925001 -3.8564999 7.8315001 15.4395 18.775499 26.1315 30.835501 34.171501 41.515499 49.123501 52.939499 60.559502 67.939499">Simulation Set</tspan></text>
</g><path
         id="path990"
         style="fill:#ffffff;fill-opacity:1;fill-rule:nonzero;stroke:none"
         d="m 2440.55,1617.38 h 1065.59 v 350.98 H 2440.55 Z" /><g
         transform="scale(1.33863,-0.661375)"
         id="g992"><path
           id="path994"
           style="fill:none;stroke:#000000;stroke-width:13.26720047;stroke-linecap:butt;stroke-linejoin:miter;stroke-miterlimit:4;stroke-dasharray:none;stroke-opacity:1"
           d="m 1823.18,-2976.17 h 796.03 v 530.68 h -796.03 z" /></g><g
         transform="scale(10)"
         id="g996"><text
           id="text1000"
           style="font-variant:normal;font-weight:normal;font-size:12px;font-family:'DejaVu Sans';-inkscape-font-specification:DejaVuSans;writing-mode:lr-tb;fill:#000000;fill-opacity:1;fill-rule:nonzero;stroke:none"
           transform="matrix(1,0,0,-1,249.421,175.521)"><tspan
             id="tspan998"
             y="0"
             x="0 7.6199999 15 18.336 25.716 32.316002 37.02 44.363998 49.296001 53.976002 62.015812 70.391815 77.075813 80.411812 86.663811 91.367813">Selector(BCList)</tspan></text>
<text
           id="text1006"
           style="font-variant:normal;font-weight:normal;font-size:12.24928379px;font-family:'DejaVu Sans';-inkscape-font-specification:DejaVuSans;writing-mode:lr-tb;fill:#000000;fill-opacity:1;fill-rule:nonzero;stroke:none"
           transform="matrix(1,0,0,-0.91023284,142.439,278.146)"><tspan
             id="tspan1002"
             y="0"
             x="0 9.1624641">No</tspan><tspan
             id="tspan1004"
             y="121.58537"
             x="3.9707093 13.133173">No</tspan></text>
</g><path
         id="path1008"
         style="fill:none;stroke:#000000;stroke-width:7.41344023;stroke-linecap:butt;stroke-linejoin:miter;stroke-miterlimit:4;stroke-dasharray:none;stroke-opacity:1"
         d="m 2176.33,2337.97 798.2,1.44 0.47,-355.93" /><path
         id="path1010"
         style="fill:#000000;fill-opacity:1;fill-rule:evenodd;stroke:none"
         d="m 2974.88,2057.62 -29.68,29.61 29.8,-103.75 29.49,103.82 z" /><path
         id="path1012"
         style="fill:none;stroke:#000000;stroke-width:7.90767002;stroke-linecap:butt;stroke-linejoin:miter;stroke-miterlimit:4;stroke-dasharray:none;stroke-opacity:1"
         d="m 2974.88,2057.62 -29.68,29.61 29.8,-103.75 29.49,103.83 z" /><path
         id="path1014"
         style="fill:none;stroke:#000000;stroke-width:7.30064011;stroke-linecap:butt;stroke-linejoin:miter;stroke-miterlimit:4;stroke-dasharray:none;stroke-opacity:1"
         d="m 1636.91,4310.23 1.06,-162.73" /><path
         id="path1016"
         style="fill:#000000;fill-opacity:1;fill-rule:evenodd;stroke:none"
         d="m 1637.5,4220.51 -29.38,28.98 29.85,-101.99 28.55,102.38 z" /><path
         id="path1018"
         style="fill:none;stroke:#000000;stroke-width:7.78735018;stroke-linecap:butt;stroke-linejoin:miter;stroke-miterlimit:4;stroke-dasharray:none;stroke-opacity:1"
         d="m 1637.5,4220.51 -29.37,28.98 29.84,-101.99 28.56,102.39 z" /><path
         id="path1020"
         style="fill:none;stroke:#000000;stroke-width:7.71153021;stroke-linecap:butt;stroke-linejoin:miter;stroke-miterlimit:4;stroke-dasharray:none;stroke-opacity:1"
         d="m 1640.2,3784.45 0.97,-189.76" /><path
         id="path1022"
         style="fill:#000000;fill-opacity:1;fill-rule:evenodd;stroke:none"
         d="m 1640.78,3671.8 -31.01,30.7 31.4,-107.81 30.28,108.12 z" /><path
         id="path1024"
         style="fill:none;stroke:#000000;stroke-width:8.22562981;stroke-linecap:butt;stroke-linejoin:miter;stroke-miterlimit:4;stroke-dasharray:none;stroke-opacity:1"
         d="m 1640.78,3671.79 -31.01,30.71 31.4,-107.81 30.28,108.12 z" /><path
         id="path1026"
         style="fill:none;stroke:#000000;stroke-width:7.71153021;stroke-linecap:butt;stroke-linejoin:miter;stroke-miterlimit:4;stroke-dasharray:none;stroke-opacity:1"
         d="m 1641.29,2880.12 0.98,-189.77" /><path
         id="path1028"
         style="fill:#000000;fill-opacity:1;fill-rule:evenodd;stroke:none"
         d="m 1641.88,2767.46 -31.02,30.66 31.41,-107.77 30.27,108.13 z" /><path
         id="path1030"
         style="fill:none;stroke:#000000;stroke-width:8.22562981;stroke-linecap:butt;stroke-linejoin:miter;stroke-miterlimit:4;stroke-dasharray:none;stroke-opacity:1"
         d="m 1641.87,2767.46 -31.01,30.66 31.41,-107.77 30.27,108.13 z" /><path
         id="path1032"
         style="fill:none;stroke:#000000;stroke-width:7.46084976;stroke-linecap:butt;stroke-linejoin:miter;stroke-miterlimit:4;stroke-dasharray:none;stroke-opacity:1"
         d="m 1642.27,1990.47 0.7,-541.52" /><path
         id="path1034"
         style="fill:#000000;fill-opacity:1;fill-rule:evenodd;stroke:none"
         d="m 1642.85,1523.55 -29.88,29.81 30,-104.41 29.69,104.49 z" /><path
         id="path1036"
         style="fill:none;stroke:#000000;stroke-width:7.95824003;stroke-linecap:butt;stroke-linejoin:miter;stroke-miterlimit:4;stroke-dasharray:none;stroke-opacity:1"
         d="m 1642.86,1523.56 -29.89,29.8 30,-104.41 29.69,104.48 z" /><path
         id="path1038"
         style="fill:none;stroke:#000000;stroke-width:7.64909983;stroke-linecap:butt;stroke-linejoin:miter;stroke-miterlimit:4;stroke-dasharray:none;stroke-opacity:1"
         d="m 1655.9,1089.8 0.98,-186.71" /><path
         id="path1040"
         style="fill:#000000;fill-opacity:1;fill-rule:evenodd;stroke:none"
         d="m 1656.48,979.57 -30.78,30.43 31.18,-106.91 30.03,107.26 z" /><path
         id="path1042"
         style="fill:none;stroke:#000000;stroke-width:8.15904999;stroke-linecap:butt;stroke-linejoin:miter;stroke-miterlimit:4;stroke-dasharray:none;stroke-opacity:1"
         d="m 1656.48,979.566 -30.77,30.434 31.17,-106.914 30.03,107.264 z" /><path
         id="path1044"
         style="fill:none;stroke:#000000;stroke-width:7.61539984;stroke-linecap:butt;stroke-linejoin:miter;stroke-miterlimit:4;stroke-dasharray:none;stroke-opacity:1"
         d="m 1659.06,545.621 0.98,-185.07" /><path
         id="path1046"
         style="fill:#000000;fill-opacity:1;fill-rule:evenodd;stroke:none"
         d="m 1659.65,436.68 -30.63,30.312 31.02,-106.441 29.92,106.75 z" /><path
         id="path1048"
         style="fill:none;stroke:#000000;stroke-width:8.12310028;stroke-linecap:butt;stroke-linejoin:miter;stroke-miterlimit:4;stroke-dasharray:none;stroke-opacity:1"
         d="m 1659.64,436.676 -30.62,30.316 31.02,-106.445 29.92,106.754 z" /><path
         id="path1050"
         style="fill:none;stroke:#000000;stroke-width:10.47299957;stroke-linecap:butt;stroke-linejoin:miter;stroke-miterlimit:4;stroke-dasharray:none;stroke-opacity:1"
         d="m 2165.55,3229.14 358.83,0.98" /><path
         id="path1052"
         style="fill:#000000;fill-opacity:1;fill-rule:evenodd;stroke:none"
         d="m 2419.65,3229.84 -41.76,-42.03 146.49,42.31 -146.72,41.48 z" /><path
         id="path1054"
         style="fill:none;stroke:#000000;stroke-width:11.1711998;stroke-linecap:butt;stroke-linejoin:miter;stroke-miterlimit:4;stroke-dasharray:none;stroke-opacity:1"
         d="m 2419.64,3229.85 -41.75,-42.04 146.49,42.31 -146.72,41.49 z" /><path
         id="path1056"
         style="fill:none;stroke:#000000;stroke-width:7.71153021;stroke-linecap:butt;stroke-linejoin:miter;stroke-miterlimit:4;stroke-dasharray:none;stroke-opacity:1"
         d="m 725.309,3957.77 189.769,0.98" /><path
         id="path1058"
         style="fill:#000000;fill-opacity:1;fill-rule:evenodd;stroke:none"
         d="m 837.969,3958.36 -30.668,-31.02 107.777,31.41 -108.129,30.27 z" /><path
         id="path1060"
         style="fill:none;stroke:#000000;stroke-width:8.22562981;stroke-linecap:butt;stroke-linejoin:miter;stroke-miterlimit:4;stroke-dasharray:none;stroke-opacity:1"
         d="m 837.973,3958.36 -30.668,-31.02 107.777,31.41 -108.133,30.27 z" /><path
         id="path1062"
         style="fill:none;stroke:#000000;stroke-width:7.5;stroke-linecap:butt;stroke-linejoin:miter;stroke-miterlimit:4;stroke-dasharray:none;stroke-opacity:1"
         d="m 2982.42,1614.53 -1.37,-353.24 -790.03,0.66" /><path
         id="path1064"
         style="fill:#000000;fill-opacity:1;fill-rule:evenodd;stroke:none"
         d="m 2266.02,1261.91 30.03,29.97 -105.03,-29.93 105,-30.07 z" /><path
         id="path1066"
         style="fill:none;stroke:#000000;stroke-width:8;stroke-linecap:butt;stroke-linejoin:miter;stroke-miterlimit:4;stroke-dasharray:none;stroke-opacity:1"
         d="m 2266.02,1261.91 30.03,29.97 -105.03,-29.92 105,-30.08 z" /><path
         id="path1068"
         style="fill:#ffffff;fill-opacity:1;fill-rule:nonzero;stroke:none"
         d="M 202.07,542.891 H 909.84 V 893.442 H 202.07 Z" /><g
         transform="scale(1.14745,-0.852554)"
         id="g1070"><path
           id="path1072"
           style="fill:none;stroke:#000000;stroke-width:10.2802;stroke-linecap:butt;stroke-linejoin:miter;stroke-miterlimit:4;stroke-dasharray:none;stroke-opacity:1"
           d="m 176.104,-1047.95 h 616.822 v 411.169 H 176.104 Z" /></g><g
         transform="scale(10)"
         id="g1074"><text
           id="text1078"
           style="font-variant:normal;font-weight:normal;font-size:12px;font-family:'DejaVu Sans';-inkscape-font-specification:DejaVuSans;writing-mode:lr-tb;fill:#000000;fill-opacity:1;fill-rule:nonzero;stroke:none"
           transform="matrix(1,0,0,-1,39.7148,67.3426)"><tspan
             id="tspan1076"
             y="0"
             x="0 10.356 17.736 23.988001">Mesh</tspan></text>
</g><path
         id="path1080"
         style="fill:none;stroke:#000000;stroke-width:7.71153021;stroke-linecap:butt;stroke-linejoin:miter;stroke-miterlimit:4;stroke-dasharray:none;stroke-opacity:1"
         d="m 914.922,715.59 189.768,1.012" /><path
         id="path1082"
         style="fill:#000000;fill-opacity:1;fill-rule:evenodd;stroke:none"
         d="m 1027.58,716.211 -30.701,-31.012 107.811,31.403 -108.131,30.277 z" /><path
         id="path1084"
         style="fill:none;stroke:#000000;stroke-width:8.22562981;stroke-linecap:butt;stroke-linejoin:miter;stroke-miterlimit:4;stroke-dasharray:none;stroke-opacity:1"
         d="m 1027.58,716.207 -30.701,-31.012 107.811,31.407 -108.124,30.273 z" /></g></g></svg>